<svg width="24" height="24" viewBox="0 0 24 24" fill="none" xmlns="http://www.w3.org/2000/svg">
<circle cx="12" cy="12" r="12" fill="#DEDEDE"/>
<path d="M14.1884 6.176C14.0906 5.83735 13.8826 5.53921 13.5959 5.32694C13.3091 5.11467 12.9595 4.99987 12.6 5H10.4C9.64467 5 9.00667 5.49754 8.8116 6.176M14.1884 6.176C14.2287 6.31528 14.25 6.46318 14.25 6.61538C14.25 6.75819 14.1921 6.89515 14.0889 6.99613C13.9858 7.09712 13.8459 7.15385 13.7 7.15385H9.3C9.15413 7.15385 9.01424 7.09712 8.91109 6.99613C8.80795 6.89515 8.75 6.75819 8.75 6.61538C8.75 6.46318 8.772 6.31528 8.8116 6.176M14.1884 6.176C14.6621 6.21118 15.1329 6.25497 15.6015 6.3081C16.4082 6.4 17 7.08133 17 7.87682V17.3846C17 17.813 16.8262 18.2239 16.5167 18.5269C16.2073 18.8298 15.7876 19 15.35 19H7.65C7.21239 19 6.79271 18.8298 6.48327 18.5269C6.17384 18.2239 6 17.813 6 17.3846V7.87682C6 7.08133 6.59107 6.4 7.39847 6.3081C7.86856 6.25481 8.3397 6.21077 8.8116 6.176" stroke="#979797" stroke-width="1.5" stroke-linecap="round" stroke-linejoin="round"/>
</svg>
