<svg width="209" height="30" viewBox="0 0 209 30" fill="none" xmlns="http://www.w3.org/2000/svg">
<g id="Group 13">
<g id="Group">
<path id="Vector" d="M26.8977 0.529971C26.191 -0.176657 25.0405 -0.176657 24.3339 0.529971L23.3283 1.53556L23.0791 1.78469L22.9251 1.9387L22.5718 2.29201L22.5265 2.33731L17.263 7.60078L10.2466 14.6172L16.7331 21.1037L19.2969 18.5399L15.3742 14.6172L20.4972 9.49419L23.061 6.93039L23.6318 6.35966L25.1311 4.86034L25.9192 4.07217L26.8931 3.09829C27.5997 2.39166 27.5997 1.24113 26.8931 0.5345L26.8977 0.529971Z" fill="#65D6BC"/>
<path id="Vector_2" d="M33.3112 6.93069L32.2241 8.01781L31.4994 8.74256L30.752 9.48995L33.3158 12.0537L35.875 14.613L26.1136 24.3744L25.6878 24.8002L24.2791 26.2044C24.2746 26.209 24.27 26.218 24.261 26.2271L24.2519 26.2361C23.5725 26.9473 23.5815 28.0707 24.2791 28.7682C24.9767 29.4658 26.1362 29.4749 26.8429 28.7682L28.1927 27.4184L41.0026 14.6085L33.3158 6.92163L33.3112 6.93069Z" fill="#65D6BC"/>
<path id="Vector_3" d="M29.47 13.3399C28.7634 12.6332 27.6129 12.6332 26.9062 13.3399L25.4975 14.7486L25.4703 14.7758L22.7661 17.48L21.4027 18.8434L20.5013 19.7448L17.9375 22.3086L15.3782 24.8679L5.13212 14.6218L14.9887 4.76521L15.4552 4.29866L16.6601 3.09376C17.3668 2.38714 17.3668 1.2366 16.6601 0.529971C15.9535 -0.176657 14.803 -0.176657 14.0963 0.529971L12.6876 1.9387L12.6604 1.96588L0 14.6263L15.3737 30L20.4968 24.8769L23.5452 21.8285L27.7895 17.5842L28.2561 17.1176L29.2753 16.0984L29.461 15.9127C30.1676 15.2061 30.1676 14.0556 29.461 13.3489L29.47 13.3399Z" fill="#184B98"/>
</g>
<g id="Group 12">
<path id="Vector_4" d="M61.5103 21.724C60.1711 21.724 59.0175 21.4497 58.0413 20.9011C57.0652 20.3526 56.315 19.562 55.7906 18.5375C55.2662 17.5129 55 16.2948 55 14.8911V9.85712C55 8.44535 55.2662 7.2272 55.7906 6.21073C56.315 5.19426 57.0733 4.40368 58.0494 3.84704C59.0255 3.2904 60.1792 3.01611 61.5183 3.01611C62.6316 3.01611 63.6319 3.25006 64.5193 3.72603C65.4067 4.202 66.1489 4.87964 66.7459 5.75897C67.3429 6.6383 67.7462 7.68704 67.964 8.90519H64.8662C64.7129 8.30014 64.479 7.78384 64.1482 7.34821C63.8175 6.91258 63.4303 6.58183 62.9785 6.34788C62.5267 6.11393 62.0427 5.99292 61.5183 5.99292C60.4696 5.99292 59.6387 6.33981 59.0255 7.03359C58.4124 7.72737 58.1139 8.67124 58.1139 9.86519V14.8991C58.1139 16.0931 58.4205 17.0369 59.0255 17.7227C59.6306 18.4084 60.4615 18.7553 61.5183 18.7553C62.3008 18.7553 62.9946 18.5052 63.6077 17.9969C64.2208 17.4887 64.6403 16.7707 64.8581 15.843H67.956C67.7301 17.0611 67.3187 18.1099 66.7297 18.9892C66.1408 19.8685 65.3987 20.5462 64.5113 21.0222C63.6239 21.4981 62.6235 21.7321 61.5183 21.7321L61.5103 21.724Z" fill="#65D6BC"/>
<path id="Vector_5" d="M71.1099 21.5384V8.45337H74.248V21.5384H71.1099ZM78.3946 11.8174C78.201 11.5996 77.9589 11.4302 77.6605 11.3172C77.362 11.2043 77.0231 11.1478 76.6359 11.1478C75.8776 11.1478 75.2968 11.3737 74.8773 11.8255C74.4578 12.2772 74.2561 12.8984 74.2561 13.6971L73.9899 10.7364C74.369 9.96194 74.8611 9.3569 75.4742 8.92127C76.0873 8.48564 76.7569 8.26782 77.483 8.26782C78.0557 8.26782 78.572 8.35656 79.0319 8.52597C79.4917 8.69538 79.8951 8.95354 80.242 9.29236L78.4026 11.8255L78.3946 11.8174Z" fill="#184B98"/>
<path id="Vector_6" d="M86.0825 22.6113L80.7339 8.45337H83.6704L87.8814 19.8282L86.0825 22.6113ZM89.6401 8.45337H92.5766L86.8811 24.604C86.5584 25.4994 86.1067 26.1287 85.5258 26.4755C84.945 26.8224 84.1383 26.9999 83.1137 26.9999H82.4683V24.0877H83.1137C83.5332 24.0877 83.8801 23.9989 84.1383 23.8214C84.3964 23.644 84.6223 23.3455 84.7998 22.926L89.6401 8.45337Z" fill="#184B98"/>
<path id="Vector_7" d="M94.5942 26.8547V8.4534H97.6114V26.8628H94.5942V26.8547ZM100.774 21.724C99.9831 21.724 99.2974 21.5304 98.7166 21.1351C98.1358 20.7398 97.7082 20.1912 97.4339 19.4732L97.6114 16.6094C97.6114 17.1015 97.7001 17.529 97.8776 17.8759C98.0551 18.2228 98.3132 18.489 98.644 18.6746C98.9747 18.8601 99.3862 18.9489 99.8702 18.9489C100.62 18.9489 101.201 18.7149 101.613 18.2389C102.024 17.763 102.234 17.1015 102.234 16.2383V13.7778C102.234 12.8984 102.024 12.2127 101.613 11.7287C101.201 11.2447 100.62 11.0026 99.8702 11.0026C99.3942 11.0026 98.9828 11.0914 98.644 11.2769C98.3052 11.4625 98.0551 11.7206 97.8776 12.0675C97.7001 12.4144 97.6114 12.842 97.6114 13.3502L97.3452 10.6396C97.7243 9.87323 98.2164 9.28432 98.8215 8.86483C99.4265 8.44533 100.096 8.24365 100.838 8.24365C102.242 8.24365 103.323 8.72769 104.089 9.68769C104.856 10.6477 105.235 12.011 105.235 13.7697V16.2383C105.235 17.9808 104.848 19.328 104.065 20.28C103.283 21.2319 102.185 21.7079 100.766 21.7079L100.774 21.724Z" fill="#184B98"/>
<path id="Vector_8" d="M107.631 11.0834V8.44541H113.786V11.0834H107.631ZM112.173 21.595C111.051 21.595 110.245 21.2965 109.736 20.6995C109.228 20.1026 108.978 19.2474 108.978 18.1261V4.64575H111.995V17.7227C111.995 18.0373 112.06 18.2794 112.181 18.4568C112.302 18.6343 112.495 18.7231 112.737 18.7231H113.786V21.6111H112.173V21.595Z" fill="#184B98"/>
<path id="Vector_9" d="M122.208 21.724C120.449 21.724 119.094 21.2238 118.126 20.2315C117.158 19.2393 116.682 17.8356 116.682 16.0285V13.8988C116.682 12.1078 117.166 10.7203 118.126 9.73607C119.086 8.75187 120.449 8.25977 122.208 8.25977C123.966 8.25977 125.322 8.75187 126.29 9.73607C127.258 10.7203 127.734 12.1078 127.734 13.8988V16.0688C127.734 17.8678 127.25 19.2635 126.29 20.2477C125.33 21.2319 123.966 21.732 122.208 21.732V21.724ZM122.208 18.8359C123.006 18.8359 123.628 18.5939 124.063 18.1018C124.499 17.6097 124.717 16.932 124.717 16.0608V13.8907C124.717 13.0194 124.499 12.3418 124.063 11.8577C123.628 11.3737 123.006 11.1398 122.208 11.1398C121.409 11.1398 120.804 11.3818 120.36 11.8577C119.917 12.3337 119.699 13.0114 119.699 13.8907V16.0608C119.699 16.932 119.917 17.6177 120.36 18.1018C120.804 18.5858 121.417 18.8359 122.208 18.8359Z" fill="#184B98"/>
<path id="Vector_10" d="M143.957 21.724C143.078 21.724 142.231 21.6353 141.416 21.4659C140.601 21.2965 139.843 21.0383 139.141 20.6995C138.439 20.3607 137.786 19.9492 137.189 19.4491L138.786 17.037C139.496 17.6339 140.287 18.0857 141.166 18.3923C142.045 18.6988 142.973 18.8521 143.957 18.8521C145.184 18.8521 146.136 18.6343 146.813 18.1987C147.491 17.763 147.83 17.1418 147.83 16.3432V16.3271C147.83 15.7139 147.66 15.246 147.321 14.9153C146.983 14.5845 146.531 14.3425 145.982 14.1892C145.434 14.036 144.821 13.8988 144.167 13.7939C143.473 13.681 142.763 13.5519 142.045 13.3825C141.327 13.2131 140.666 12.963 140.069 12.6161C139.472 12.2692 138.988 11.7691 138.617 11.1156C138.246 10.4622 138.068 9.59899 138.068 8.50991V8.49378C138.068 6.74319 138.649 5.39597 139.803 4.43597C140.956 3.47597 142.594 3 144.7 3C145.684 3 146.668 3.16134 147.652 3.48403C148.636 3.80672 149.572 4.28269 150.468 4.91193L149.007 7.39664C148.298 6.88033 147.58 6.50118 146.853 6.24302C146.127 5.98487 145.409 5.8558 144.708 5.8558C143.546 5.8558 142.65 6.06555 142.013 6.49311C141.376 6.92067 141.061 7.51765 141.061 8.2921V8.30823C141.061 8.94554 141.247 9.42958 141.626 9.7684C142.005 10.1072 142.489 10.3492 143.086 10.5025C143.683 10.6558 144.337 10.8171 145.03 10.9543C145.716 11.0914 146.41 11.2528 147.096 11.4464C147.781 11.64 148.402 11.9143 148.967 12.2773C149.532 12.6403 149.984 13.1405 150.322 13.7697C150.661 14.399 150.831 15.2299 150.831 16.2464V16.2706C150.831 18.005 150.234 19.3442 149.032 20.2881C147.83 21.2319 146.144 21.7079 143.973 21.7079L143.957 21.724Z" fill="#65D6BC"/>
<path id="Vector_11" d="M156.977 3.20166V17.6904C156.977 18.005 157.058 18.247 157.219 18.4245C157.381 18.602 157.607 18.6907 157.897 18.6907H158.792V21.5788H157.155C156.146 21.5788 155.364 21.2722 154.807 20.6672C154.251 20.0622 153.968 19.207 153.968 18.1099V3.20166H156.985H156.977Z" fill="#184B98"/>
<path id="Vector_12" d="M166.924 21.724C165.069 21.724 163.625 21.2157 162.6 20.1993C161.576 19.1828 161.06 17.7388 161.06 15.8591V14.3828C161.06 12.4305 161.552 10.9219 162.536 9.85708C163.52 8.7922 164.908 8.25977 166.699 8.25977C168.385 8.25977 169.691 8.88094 170.619 10.1233C171.547 11.3656 172.007 13.1082 172.007 15.3589V16.214H163.117V14.0117H169.207L169.191 13.8746C169.111 12.963 168.853 12.2611 168.425 11.7529C167.997 11.2446 167.417 10.9865 166.699 10.9865C165.803 10.9865 165.101 11.2688 164.601 11.8335C164.101 12.3983 163.851 13.205 163.851 14.2456V15.9075C163.851 16.8998 164.117 17.6581 164.658 18.1986C165.198 18.7391 165.948 18.9972 166.924 18.9972C167.417 18.9972 167.909 18.9004 168.393 18.7149C168.877 18.5293 169.312 18.2631 169.7 17.9243L171.668 19.7636C171.006 20.3848 170.256 20.8688 169.433 21.2077C168.61 21.5465 167.771 21.7159 166.933 21.7159L166.924 21.724Z" fill="#184B98"/>
<path id="Vector_13" d="M177.985 8.45337V16.4077C177.985 17.1821 178.195 17.7791 178.606 18.2066C179.018 18.6342 179.598 18.844 180.349 18.844C181.099 18.844 181.672 18.6423 182.075 18.2389C182.478 17.8356 182.68 17.2628 182.68 16.5206L182.858 19.3199C182.632 19.9411 182.236 20.4977 181.664 20.9898C181.091 21.4819 180.357 21.724 179.437 21.724C178.017 21.724 176.92 21.2641 176.138 20.3445C175.355 19.4248 174.968 18.134 174.968 16.4641V8.45337H177.985ZM182.672 21.5384V8.45337H185.673V21.5384H182.672Z" fill="#184B98"/>
<path id="Vector_14" d="M188.319 11.0834V8.44541H194.474V11.0834H188.319ZM192.861 21.595C191.739 21.595 190.933 21.2965 190.424 20.6995C189.916 20.1026 189.666 19.2474 189.666 18.1261V4.64575H192.683V17.7227C192.683 18.0373 192.748 18.2794 192.869 18.4568C192.99 18.6343 193.183 18.7231 193.425 18.7231H194.474V21.6111H192.861V21.595Z" fill="#184B98"/>
<path id="Vector_15" d="M197.75 21.5385V3.20166H200.767V21.5304H197.75V21.5385ZM205.502 21.5385V13.6084C205.502 12.8178 205.292 12.2127 204.873 11.7852C204.453 11.3576 203.856 11.1479 203.082 11.1479C202.307 11.1479 201.767 11.3415 201.364 11.7368C200.96 12.1321 200.759 12.6887 200.759 13.4148L200.492 10.7042C200.88 9.92166 201.372 9.31662 201.969 8.89712C202.566 8.47762 203.284 8.25981 204.115 8.25981C205.518 8.25981 206.599 8.72771 207.366 9.65544C208.132 10.5832 208.511 11.8981 208.511 13.5922V21.5385H205.494H205.502Z" fill="#184B98"/>
</g>
</g>
</svg>
